<mxfile host="Electron" modified="2024-07-21T04:32:11.862Z" agent="Mozilla/5.0 (X11; Linux x86_64) AppleWebKit/537.36 (KHTML, like Gecko) draw.io/24.6.4 Chrome/124.0.6367.207 Electron/30.0.6 Safari/537.36" etag="DiorzPS0oClMuoJqR8lE" version="24.6.4" type="device">
  <diagram name="Page-1" id="c4acf3e9-155e-7222-9cf6-157b1a14988f">
    <mxGraphModel dx="1885" dy="622" grid="1" gridSize="10" guides="1" tooltips="1" connect="1" arrows="1" fold="1" page="1" pageScale="1" pageWidth="850" pageHeight="1100" background="none" math="0" shadow="0">
      <root>
        <mxCell id="0" />
        <mxCell id="1" parent="0" />
        <mxCell id="CuQVLchVUGJVtXKuXJMo-16" style="shape=connector;rounded=0;orthogonalLoop=1;jettySize=auto;html=1;strokeColor=default;align=center;verticalAlign=middle;fontFamily=Helvetica;fontSize=11;fontColor=default;labelBackgroundColor=default;endArrow=none;" parent="1" source="CuQVLchVUGJVtXKuXJMo-1" target="CuQVLchVUGJVtXKuXJMo-3" edge="1">
          <mxGeometry relative="1" as="geometry" />
        </mxCell>
        <mxCell id="CuQVLchVUGJVtXKuXJMo-17" style="shape=connector;rounded=0;orthogonalLoop=1;jettySize=auto;html=1;strokeColor=default;align=center;verticalAlign=middle;fontFamily=Helvetica;fontSize=11;fontColor=default;labelBackgroundColor=default;endArrow=none;" parent="1" source="CuQVLchVUGJVtXKuXJMo-1" target="CuQVLchVUGJVtXKuXJMo-5" edge="1">
          <mxGeometry relative="1" as="geometry" />
        </mxCell>
        <mxCell id="CuQVLchVUGJVtXKuXJMo-71" style="shape=connector;rounded=0;orthogonalLoop=1;jettySize=auto;html=1;strokeColor=default;align=center;verticalAlign=middle;fontFamily=Helvetica;fontSize=11;fontColor=default;labelBackgroundColor=default;endArrow=none;" parent="1" source="CuQVLchVUGJVtXKuXJMo-1" target="CuQVLchVUGJVtXKuXJMo-69" edge="1">
          <mxGeometry relative="1" as="geometry" />
        </mxCell>
        <mxCell id="bH-2twqRssA-FyqlToAb-2" style="rounded=0;orthogonalLoop=1;jettySize=auto;html=1;endArrow=none;" edge="1" parent="1" source="CuQVLchVUGJVtXKuXJMo-1" target="bH-2twqRssA-FyqlToAb-1">
          <mxGeometry relative="1" as="geometry" />
        </mxCell>
        <mxCell id="bH-2twqRssA-FyqlToAb-36" style="edgeStyle=none;shape=connector;rounded=0;orthogonalLoop=1;jettySize=auto;html=1;strokeColor=default;align=center;verticalAlign=middle;fontFamily=Helvetica;fontSize=11;fontColor=default;labelBackgroundColor=default;endArrow=none;" edge="1" parent="1" source="CuQVLchVUGJVtXKuXJMo-1" target="CuQVLchVUGJVtXKuXJMo-6">
          <mxGeometry relative="1" as="geometry" />
        </mxCell>
        <mxCell id="CuQVLchVUGJVtXKuXJMo-1" value="Standar" style="whiteSpace=wrap;html=1;align=center;" parent="1" vertex="1">
          <mxGeometry x="170" y="420" width="100" height="40" as="geometry" />
        </mxCell>
        <mxCell id="CuQVLchVUGJVtXKuXJMo-3" value="id_standar" style="ellipse;whiteSpace=wrap;html=1;align=center;fontStyle=4;" parent="1" vertex="1">
          <mxGeometry x="20" y="470" width="100" height="40" as="geometry" />
        </mxCell>
        <mxCell id="CuQVLchVUGJVtXKuXJMo-5" value="tipe" style="ellipse;whiteSpace=wrap;html=1;align=center;" parent="1" vertex="1">
          <mxGeometry x="200" y="495" width="100" height="40" as="geometry" />
        </mxCell>
        <mxCell id="CuQVLchVUGJVtXKuXJMo-10" style="rounded=0;orthogonalLoop=1;jettySize=auto;html=1;endArrow=none;" parent="1" source="CuQVLchVUGJVtXKuXJMo-6" target="CuQVLchVUGJVtXKuXJMo-8" edge="1">
          <mxGeometry relative="1" as="geometry" />
        </mxCell>
        <mxCell id="CuQVLchVUGJVtXKuXJMo-14" style="shape=connector;rounded=0;orthogonalLoop=1;jettySize=auto;html=1;strokeColor=default;align=center;verticalAlign=middle;fontFamily=Helvetica;fontSize=11;fontColor=default;labelBackgroundColor=default;endArrow=none;" parent="1" source="CuQVLchVUGJVtXKuXJMo-6" target="CuQVLchVUGJVtXKuXJMo-7" edge="1">
          <mxGeometry relative="1" as="geometry" />
        </mxCell>
        <mxCell id="CuQVLchVUGJVtXKuXJMo-6" value="Indikator" style="whiteSpace=wrap;html=1;align=center;" parent="1" vertex="1">
          <mxGeometry x="530" y="455" width="100" height="40" as="geometry" />
        </mxCell>
        <mxCell id="CuQVLchVUGJVtXKuXJMo-7" value="id_indikator" style="ellipse;whiteSpace=wrap;html=1;align=center;fontStyle=4;" parent="1" vertex="1">
          <mxGeometry x="720" y="485" width="100" height="40" as="geometry" />
        </mxCell>
        <mxCell id="CuQVLchVUGJVtXKuXJMo-8" value="id_standar" style="ellipse;whiteSpace=wrap;html=1;align=center;" parent="1" vertex="1">
          <mxGeometry x="710" y="415" width="100" height="40" as="geometry" />
        </mxCell>
        <mxCell id="CuQVLchVUGJVtXKuXJMo-22" style="shape=connector;rounded=0;orthogonalLoop=1;jettySize=auto;html=1;strokeColor=default;align=center;verticalAlign=middle;fontFamily=Helvetica;fontSize=11;fontColor=default;labelBackgroundColor=default;endArrow=none;" parent="1" source="CuQVLchVUGJVtXKuXJMo-18" target="CuQVLchVUGJVtXKuXJMo-20" edge="1">
          <mxGeometry relative="1" as="geometry" />
        </mxCell>
        <mxCell id="CuQVLchVUGJVtXKuXJMo-18" value="Penetapan" style="whiteSpace=wrap;html=1;align=center;fontFamily=Helvetica;fontSize=11;fontColor=default;labelBackgroundColor=default;" parent="1" vertex="1">
          <mxGeometry x="275" y="270" width="100" height="40" as="geometry" />
        </mxCell>
        <mxCell id="CuQVLchVUGJVtXKuXJMo-20" value="id_penetapan" style="whiteSpace=wrap;html=1;align=center;fontFamily=Helvetica;fontSize=11;fontColor=default;labelBackgroundColor=default;shape=ellipse;perimeter=ellipsePerimeter;fontStyle=4;" parent="1" vertex="1">
          <mxGeometry x="445" y="290" width="100" height="40" as="geometry" />
        </mxCell>
        <mxCell id="CuQVLchVUGJVtXKuXJMo-26" style="shape=connector;rounded=0;orthogonalLoop=1;jettySize=auto;html=1;strokeColor=default;align=center;verticalAlign=middle;fontFamily=Helvetica;fontSize=11;fontColor=default;labelBackgroundColor=default;endArrow=none;" parent="1" source="CuQVLchVUGJVtXKuXJMo-21" target="CuQVLchVUGJVtXKuXJMo-25" edge="1">
          <mxGeometry relative="1" as="geometry" />
        </mxCell>
        <mxCell id="bH-2twqRssA-FyqlToAb-39" style="edgeStyle=none;shape=connector;rounded=0;orthogonalLoop=1;jettySize=auto;html=1;strokeColor=default;align=center;verticalAlign=middle;fontFamily=Helvetica;fontSize=11;fontColor=default;labelBackgroundColor=default;endArrow=none;" edge="1" parent="1" source="CuQVLchVUGJVtXKuXJMo-21" target="CuQVLchVUGJVtXKuXJMo-18">
          <mxGeometry relative="1" as="geometry" />
        </mxCell>
        <mxCell id="CuQVLchVUGJVtXKuXJMo-21" value="Sheet" style="whiteSpace=wrap;html=1;align=center;fontFamily=Helvetica;fontSize=11;fontColor=default;labelBackgroundColor=default;" parent="1" vertex="1">
          <mxGeometry x="90" y="270" width="100" height="40" as="geometry" />
        </mxCell>
        <mxCell id="CuQVLchVUGJVtXKuXJMo-24" style="shape=connector;rounded=0;orthogonalLoop=1;jettySize=auto;html=1;strokeColor=default;align=center;verticalAlign=middle;fontFamily=Helvetica;fontSize=11;fontColor=default;labelBackgroundColor=default;endArrow=none;" parent="1" source="CuQVLchVUGJVtXKuXJMo-23" target="CuQVLchVUGJVtXKuXJMo-18" edge="1">
          <mxGeometry relative="1" as="geometry" />
        </mxCell>
        <mxCell id="CuQVLchVUGJVtXKuXJMo-23" value="id_sheet" style="ellipse;whiteSpace=wrap;html=1;align=center;fontFamily=Helvetica;fontSize=11;fontColor=default;labelBackgroundColor=default;" parent="1" vertex="1">
          <mxGeometry x="465" y="230" width="100" height="40" as="geometry" />
        </mxCell>
        <mxCell id="CuQVLchVUGJVtXKuXJMo-25" value="id_sheet" style="ellipse;whiteSpace=wrap;html=1;align=center;fontFamily=Helvetica;fontSize=11;fontColor=default;labelBackgroundColor=default;" parent="1" vertex="1">
          <mxGeometry x="-50" y="270" width="100" height="40" as="geometry" />
        </mxCell>
        <mxCell id="CuQVLchVUGJVtXKuXJMo-29" style="shape=connector;rounded=0;orthogonalLoop=1;jettySize=auto;html=1;strokeColor=default;align=center;verticalAlign=middle;fontFamily=Helvetica;fontSize=11;fontColor=default;labelBackgroundColor=default;endArrow=none;" parent="1" source="CuQVLchVUGJVtXKuXJMo-27" target="CuQVLchVUGJVtXKuXJMo-28" edge="1">
          <mxGeometry relative="1" as="geometry" />
        </mxCell>
        <mxCell id="CuQVLchVUGJVtXKuXJMo-27" value="User" style="whiteSpace=wrap;html=1;align=center;fontFamily=Helvetica;fontSize=11;fontColor=default;labelBackgroundColor=default;" parent="1" vertex="1">
          <mxGeometry x="545" y="150" width="100" height="40" as="geometry" />
        </mxCell>
        <mxCell id="CuQVLchVUGJVtXKuXJMo-28" value="id_user" style="ellipse;whiteSpace=wrap;html=1;align=center;fontStyle=4;fontFamily=Helvetica;fontSize=11;fontColor=default;labelBackgroundColor=default;" parent="1" vertex="1">
          <mxGeometry x="685" y="180" width="100" height="40" as="geometry" />
        </mxCell>
        <mxCell id="CuQVLchVUGJVtXKuXJMo-31" style="shape=connector;rounded=0;orthogonalLoop=1;jettySize=auto;html=1;strokeColor=default;align=center;verticalAlign=middle;fontFamily=Helvetica;fontSize=11;fontColor=default;labelBackgroundColor=default;endArrow=none;" parent="1" source="CuQVLchVUGJVtXKuXJMo-30" target="CuQVLchVUGJVtXKuXJMo-27" edge="1">
          <mxGeometry relative="1" as="geometry" />
        </mxCell>
        <mxCell id="CuQVLchVUGJVtXKuXJMo-30" value="role" style="ellipse;whiteSpace=wrap;html=1;align=center;fontFamily=Helvetica;fontSize=11;fontColor=default;labelBackgroundColor=default;" parent="1" vertex="1">
          <mxGeometry x="685" y="110" width="100" height="40" as="geometry" />
        </mxCell>
        <mxCell id="bH-2twqRssA-FyqlToAb-38" style="edgeStyle=none;shape=connector;rounded=0;orthogonalLoop=1;jettySize=auto;html=1;strokeColor=default;align=center;verticalAlign=middle;fontFamily=Helvetica;fontSize=11;fontColor=default;labelBackgroundColor=default;endArrow=none;" edge="1" parent="1" source="CuQVLchVUGJVtXKuXJMo-33" target="CuQVLchVUGJVtXKuXJMo-21">
          <mxGeometry relative="1" as="geometry" />
        </mxCell>
        <mxCell id="CuQVLchVUGJVtXKuXJMo-33" value="Pelaksanaan" style="whiteSpace=wrap;html=1;align=center;fontFamily=Helvetica;fontSize=11;fontColor=default;labelBackgroundColor=default;" parent="1" vertex="1">
          <mxGeometry x="220" y="140" width="100" height="40" as="geometry" />
        </mxCell>
        <mxCell id="CuQVLchVUGJVtXKuXJMo-37" style="shape=connector;rounded=0;orthogonalLoop=1;jettySize=auto;html=1;strokeColor=default;align=center;verticalAlign=middle;fontFamily=Helvetica;fontSize=11;fontColor=default;labelBackgroundColor=default;endArrow=none;" parent="1" source="CuQVLchVUGJVtXKuXJMo-34" target="CuQVLchVUGJVtXKuXJMo-33" edge="1">
          <mxGeometry relative="1" as="geometry" />
        </mxCell>
        <mxCell id="CuQVLchVUGJVtXKuXJMo-34" value="id_pelaksanaan" style="ellipse;whiteSpace=wrap;html=1;align=center;fontStyle=4;fontFamily=Helvetica;fontSize=11;fontColor=default;labelBackgroundColor=default;" parent="1" vertex="1">
          <mxGeometry x="390" y="160" width="100" height="40" as="geometry" />
        </mxCell>
        <mxCell id="CuQVLchVUGJVtXKuXJMo-36" style="shape=connector;rounded=0;orthogonalLoop=1;jettySize=auto;html=1;strokeColor=default;align=center;verticalAlign=middle;fontFamily=Helvetica;fontSize=11;fontColor=default;labelBackgroundColor=default;endArrow=none;" parent="1" source="CuQVLchVUGJVtXKuXJMo-35" target="CuQVLchVUGJVtXKuXJMo-33" edge="1">
          <mxGeometry relative="1" as="geometry" />
        </mxCell>
        <mxCell id="CuQVLchVUGJVtXKuXJMo-35" value="id_sheet" style="ellipse;whiteSpace=wrap;html=1;align=center;fontFamily=Helvetica;fontSize=11;fontColor=default;labelBackgroundColor=default;" parent="1" vertex="1">
          <mxGeometry x="390" y="100" width="100" height="40" as="geometry" />
        </mxCell>
        <mxCell id="CuQVLchVUGJVtXKuXJMo-61" style="shape=connector;rounded=0;orthogonalLoop=1;jettySize=auto;html=1;strokeColor=default;align=center;verticalAlign=middle;fontFamily=Helvetica;fontSize=11;fontColor=default;labelBackgroundColor=default;endArrow=none;" parent="1" source="CuQVLchVUGJVtXKuXJMo-56" target="CuQVLchVUGJVtXKuXJMo-59" edge="1">
          <mxGeometry relative="1" as="geometry" />
        </mxCell>
        <mxCell id="CuQVLchVUGJVtXKuXJMo-62" style="shape=connector;rounded=0;orthogonalLoop=1;jettySize=auto;html=1;strokeColor=default;align=center;verticalAlign=middle;fontFamily=Helvetica;fontSize=11;fontColor=default;labelBackgroundColor=default;endArrow=none;" parent="1" source="CuQVLchVUGJVtXKuXJMo-56" target="CuQVLchVUGJVtXKuXJMo-57" edge="1">
          <mxGeometry relative="1" as="geometry" />
        </mxCell>
        <mxCell id="bH-2twqRssA-FyqlToAb-6" style="shape=connector;rounded=0;orthogonalLoop=1;jettySize=auto;html=1;strokeColor=default;align=center;verticalAlign=middle;fontFamily=Helvetica;fontSize=11;fontColor=default;labelBackgroundColor=default;endArrow=none;" edge="1" parent="1" source="CuQVLchVUGJVtXKuXJMo-56" target="bH-2twqRssA-FyqlToAb-5">
          <mxGeometry relative="1" as="geometry" />
        </mxCell>
        <mxCell id="bH-2twqRssA-FyqlToAb-37" style="edgeStyle=none;shape=connector;rounded=0;orthogonalLoop=1;jettySize=auto;html=1;strokeColor=default;align=center;verticalAlign=middle;fontFamily=Helvetica;fontSize=11;fontColor=default;labelBackgroundColor=default;endArrow=none;" edge="1" parent="1" source="CuQVLchVUGJVtXKuXJMo-56" target="CuQVLchVUGJVtXKuXJMo-1">
          <mxGeometry relative="1" as="geometry" />
        </mxCell>
        <mxCell id="CuQVLchVUGJVtXKuXJMo-56" value="Target" style="whiteSpace=wrap;html=1;align=center;fontFamily=Helvetica;fontSize=11;fontColor=default;labelBackgroundColor=default;" parent="1" vertex="1">
          <mxGeometry x="520" y="660" width="100" height="40" as="geometry" />
        </mxCell>
        <mxCell id="CuQVLchVUGJVtXKuXJMo-57" value="id_target" style="ellipse;whiteSpace=wrap;html=1;align=center;fontStyle=4;fontFamily=Helvetica;fontSize=11;fontColor=default;labelBackgroundColor=default;" parent="1" vertex="1">
          <mxGeometry x="660" y="630" width="100" height="40" as="geometry" />
        </mxCell>
        <mxCell id="CuQVLchVUGJVtXKuXJMo-59" value="id_indikator" style="ellipse;whiteSpace=wrap;html=1;align=center;fontFamily=Helvetica;fontSize=11;fontColor=default;labelBackgroundColor=default;" parent="1" vertex="1">
          <mxGeometry x="640" y="700" width="100" height="40" as="geometry" />
        </mxCell>
        <mxCell id="CuQVLchVUGJVtXKuXJMo-69" value="id_penetapan" style="ellipse;whiteSpace=wrap;html=1;align=center;fontFamily=Helvetica;fontSize=11;fontColor=default;labelBackgroundColor=default;" parent="1" vertex="1">
          <mxGeometry x="330" y="375" width="100" height="40" as="geometry" />
        </mxCell>
        <mxCell id="CuQVLchVUGJVtXKuXJMo-75" style="edgeStyle=entityRelationEdgeStyle;shape=connector;rounded=0;orthogonalLoop=1;jettySize=auto;html=1;strokeColor=default;align=center;verticalAlign=middle;fontFamily=Helvetica;fontSize=11;fontColor=default;labelBackgroundColor=default;endArrow=none;" parent="1" source="CuQVLchVUGJVtXKuXJMo-72" target="CuQVLchVUGJVtXKuXJMo-73" edge="1">
          <mxGeometry relative="1" as="geometry" />
        </mxCell>
        <mxCell id="CuQVLchVUGJVtXKuXJMo-77" style="shape=connector;rounded=0;orthogonalLoop=1;jettySize=auto;html=1;strokeColor=default;align=center;verticalAlign=middle;fontFamily=Helvetica;fontSize=11;fontColor=default;labelBackgroundColor=default;endArrow=none;" parent="1" source="CuQVLchVUGJVtXKuXJMo-72" target="CuQVLchVUGJVtXKuXJMo-74" edge="1">
          <mxGeometry relative="1" as="geometry" />
        </mxCell>
        <mxCell id="CuQVLchVUGJVtXKuXJMo-78" style="shape=connector;rounded=0;orthogonalLoop=1;jettySize=auto;html=1;strokeColor=default;align=center;verticalAlign=middle;fontFamily=Helvetica;fontSize=11;fontColor=default;labelBackgroundColor=default;endArrow=none;" parent="1" source="CuQVLchVUGJVtXKuXJMo-72" target="CuQVLchVUGJVtXKuXJMo-76" edge="1">
          <mxGeometry relative="1" as="geometry" />
        </mxCell>
        <mxCell id="bH-2twqRssA-FyqlToAb-40" style="edgeStyle=none;shape=connector;rounded=0;orthogonalLoop=1;jettySize=auto;html=1;strokeColor=default;align=center;verticalAlign=middle;fontFamily=Helvetica;fontSize=11;fontColor=default;labelBackgroundColor=default;endArrow=none;" edge="1" parent="1" source="CuQVLchVUGJVtXKuXJMo-72" target="CuQVLchVUGJVtXKuXJMo-33">
          <mxGeometry relative="1" as="geometry" />
        </mxCell>
        <mxCell id="CuQVLchVUGJVtXKuXJMo-72" value="Detail_pelaksanaan" style="whiteSpace=wrap;html=1;align=center;fontFamily=Helvetica;fontSize=11;labelBackgroundColor=default;fillColor=#f8cecc;strokeColor=#b85450;" parent="1" vertex="1">
          <mxGeometry x="40" y="10" width="100" height="40" as="geometry" />
        </mxCell>
        <mxCell id="CuQVLchVUGJVtXKuXJMo-73" value="id_detail_pelaksanaan" style="ellipse;whiteSpace=wrap;html=1;align=center;fontStyle=4;" parent="1" vertex="1">
          <mxGeometry x="-100" y="10" width="100" height="40" as="geometry" />
        </mxCell>
        <mxCell id="CuQVLchVUGJVtXKuXJMo-74" value="id_pelaksanaan" style="ellipse;whiteSpace=wrap;html=1;align=center;fontFamily=Helvetica;fontSize=11;fontColor=default;labelBackgroundColor=default;" parent="1" vertex="1">
          <mxGeometry x="-50" y="110" width="100" height="40" as="geometry" />
        </mxCell>
        <mxCell id="CuQVLchVUGJVtXKuXJMo-76" value="id_indikator" style="ellipse;whiteSpace=wrap;html=1;align=center;fontFamily=Helvetica;fontSize=11;fontColor=default;labelBackgroundColor=default;" parent="1" vertex="1">
          <mxGeometry x="-120" y="70" width="100" height="40" as="geometry" />
        </mxCell>
        <mxCell id="CuQVLchVUGJVtXKuXJMo-94" style="shape=connector;rounded=0;orthogonalLoop=1;jettySize=auto;html=1;strokeColor=default;align=center;verticalAlign=middle;fontFamily=Helvetica;fontSize=11;fontColor=default;labelBackgroundColor=default;endArrow=none;" parent="1" source="CuQVLchVUGJVtXKuXJMo-90" target="CuQVLchVUGJVtXKuXJMo-91" edge="1">
          <mxGeometry relative="1" as="geometry" />
        </mxCell>
        <mxCell id="CuQVLchVUGJVtXKuXJMo-96" style="shape=connector;rounded=0;orthogonalLoop=1;jettySize=auto;html=1;strokeColor=default;align=center;verticalAlign=middle;fontFamily=Helvetica;fontSize=11;fontColor=default;labelBackgroundColor=default;endArrow=none;" parent="1" source="CuQVLchVUGJVtXKuXJMo-90" target="CuQVLchVUGJVtXKuXJMo-92" edge="1">
          <mxGeometry relative="1" as="geometry" />
        </mxCell>
        <mxCell id="bH-2twqRssA-FyqlToAb-10" style="shape=connector;rounded=0;orthogonalLoop=1;jettySize=auto;html=1;strokeColor=default;align=center;verticalAlign=middle;fontFamily=Helvetica;fontSize=11;fontColor=default;labelBackgroundColor=default;endArrow=none;" edge="1" parent="1" source="CuQVLchVUGJVtXKuXJMo-90" target="bH-2twqRssA-FyqlToAb-9">
          <mxGeometry relative="1" as="geometry" />
        </mxCell>
        <mxCell id="CuQVLchVUGJVtXKuXJMo-90" value="BuktiPelaksanaan" style="whiteSpace=wrap;html=1;align=center;fontFamily=Helvetica;fontSize=11;fontColor=default;labelBackgroundColor=default;" parent="1" vertex="1">
          <mxGeometry x="-160" y="640" width="100" height="40" as="geometry" />
        </mxCell>
        <mxCell id="CuQVLchVUGJVtXKuXJMo-91" value="id_bukti" style="ellipse;whiteSpace=wrap;html=1;align=center;fontStyle=4;fontFamily=Helvetica;fontSize=11;fontColor=default;labelBackgroundColor=default;" parent="1" vertex="1">
          <mxGeometry x="-20" y="680" width="100" height="40" as="geometry" />
        </mxCell>
        <mxCell id="CuQVLchVUGJVtXKuXJMo-92" value="id_detail_pelaksanaan" style="ellipse;whiteSpace=wrap;html=1;align=center;fontFamily=Helvetica;fontSize=11;fontColor=default;labelBackgroundColor=default;" parent="1" vertex="1">
          <mxGeometry y="620" width="100" height="40" as="geometry" />
        </mxCell>
        <mxCell id="bH-2twqRssA-FyqlToAb-1" value="note" style="ellipse;whiteSpace=wrap;html=1;align=center;" vertex="1" parent="1">
          <mxGeometry x="30" y="375" width="100" height="40" as="geometry" />
        </mxCell>
        <mxCell id="bH-2twqRssA-FyqlToAb-4" style="shape=connector;rounded=0;orthogonalLoop=1;jettySize=auto;html=1;strokeColor=default;align=center;verticalAlign=middle;fontFamily=Helvetica;fontSize=11;fontColor=default;labelBackgroundColor=default;endArrow=none;" edge="1" parent="1" source="bH-2twqRssA-FyqlToAb-3" target="CuQVLchVUGJVtXKuXJMo-6">
          <mxGeometry relative="1" as="geometry" />
        </mxCell>
        <mxCell id="bH-2twqRssA-FyqlToAb-3" value="note" style="ellipse;whiteSpace=wrap;html=1;align=center;fontFamily=Helvetica;fontSize=11;fontColor=default;labelBackgroundColor=default;" vertex="1" parent="1">
          <mxGeometry x="700" y="540" width="100" height="40" as="geometry" />
        </mxCell>
        <mxCell id="bH-2twqRssA-FyqlToAb-5" value="value" style="ellipse;whiteSpace=wrap;html=1;align=center;fontFamily=Helvetica;fontSize=11;fontColor=default;labelBackgroundColor=default;" vertex="1" parent="1">
          <mxGeometry x="520" y="730" width="100" height="40" as="geometry" />
        </mxCell>
        <mxCell id="bH-2twqRssA-FyqlToAb-8" style="shape=connector;rounded=0;orthogonalLoop=1;jettySize=auto;html=1;strokeColor=default;align=center;verticalAlign=middle;fontFamily=Helvetica;fontSize=11;fontColor=default;labelBackgroundColor=default;endArrow=none;" edge="1" parent="1" source="bH-2twqRssA-FyqlToAb-7" target="CuQVLchVUGJVtXKuXJMo-21">
          <mxGeometry relative="1" as="geometry" />
        </mxCell>
        <mxCell id="bH-2twqRssA-FyqlToAb-7" value="tipe_sheet" style="ellipse;whiteSpace=wrap;html=1;align=center;fontFamily=Helvetica;fontSize=11;fontColor=default;labelBackgroundColor=default;" vertex="1" parent="1">
          <mxGeometry x="-40" y="190" width="100" height="40" as="geometry" />
        </mxCell>
        <mxCell id="bH-2twqRssA-FyqlToAb-9" value="link" style="ellipse;whiteSpace=wrap;html=1;align=center;fontFamily=Helvetica;fontSize=11;fontColor=default;labelBackgroundColor=default;" vertex="1" parent="1">
          <mxGeometry x="-80" y="730" width="100" height="40" as="geometry" />
        </mxCell>
        <mxCell id="bH-2twqRssA-FyqlToAb-15" style="shape=connector;rounded=0;orthogonalLoop=1;jettySize=auto;html=1;strokeColor=default;align=center;verticalAlign=middle;fontFamily=Helvetica;fontSize=11;fontColor=default;labelBackgroundColor=default;endArrow=none;" edge="1" parent="1" source="bH-2twqRssA-FyqlToAb-11" target="bH-2twqRssA-FyqlToAb-14">
          <mxGeometry relative="1" as="geometry" />
        </mxCell>
        <mxCell id="bH-2twqRssA-FyqlToAb-16" style="shape=connector;rounded=0;orthogonalLoop=1;jettySize=auto;html=1;strokeColor=default;align=center;verticalAlign=middle;fontFamily=Helvetica;fontSize=11;fontColor=default;labelBackgroundColor=default;endArrow=none;" edge="1" parent="1" source="bH-2twqRssA-FyqlToAb-11" target="bH-2twqRssA-FyqlToAb-12">
          <mxGeometry relative="1" as="geometry" />
        </mxCell>
        <mxCell id="bH-2twqRssA-FyqlToAb-11" value="Evaluasi" style="whiteSpace=wrap;html=1;align=center;fontFamily=Helvetica;fontSize=11;labelBackgroundColor=default;fillColor=#f8cecc;strokeColor=#b85450;" vertex="1" parent="1">
          <mxGeometry x="160" y="650" width="100" height="40" as="geometry" />
        </mxCell>
        <mxCell id="bH-2twqRssA-FyqlToAb-12" value="id_evaluasi" style="whiteSpace=wrap;html=1;align=center;fontFamily=Helvetica;fontSize=11;fontColor=default;labelBackgroundColor=default;shape=ellipse;perimeter=ellipsePerimeter;fontStyle=4;" vertex="1" parent="1">
          <mxGeometry x="320" y="610" width="100" height="40" as="geometry" />
        </mxCell>
        <mxCell id="bH-2twqRssA-FyqlToAb-14" value="id_sheet" style="ellipse;whiteSpace=wrap;html=1;align=center;fontFamily=Helvetica;fontSize=11;fontColor=default;labelBackgroundColor=default;" vertex="1" parent="1">
          <mxGeometry x="275" y="720" width="100" height="40" as="geometry" />
        </mxCell>
        <mxCell id="bH-2twqRssA-FyqlToAb-23" style="shape=connector;rounded=0;orthogonalLoop=1;jettySize=auto;html=1;strokeColor=default;align=center;verticalAlign=middle;fontFamily=Helvetica;fontSize=11;fontColor=default;labelBackgroundColor=default;endArrow=none;" edge="1" parent="1" source="bH-2twqRssA-FyqlToAb-17" target="bH-2twqRssA-FyqlToAb-18">
          <mxGeometry relative="1" as="geometry" />
        </mxCell>
        <mxCell id="bH-2twqRssA-FyqlToAb-30" style="edgeStyle=none;shape=connector;rounded=0;orthogonalLoop=1;jettySize=auto;html=1;strokeColor=default;align=center;verticalAlign=middle;fontFamily=Helvetica;fontSize=11;fontColor=default;labelBackgroundColor=default;endArrow=none;" edge="1" parent="1" source="bH-2twqRssA-FyqlToAb-17" target="bH-2twqRssA-FyqlToAb-28">
          <mxGeometry relative="1" as="geometry" />
        </mxCell>
        <mxCell id="bH-2twqRssA-FyqlToAb-32" style="edgeStyle=none;shape=connector;rounded=0;orthogonalLoop=1;jettySize=auto;html=1;strokeColor=default;align=center;verticalAlign=middle;fontFamily=Helvetica;fontSize=11;fontColor=default;labelBackgroundColor=default;endArrow=none;" edge="1" parent="1" source="bH-2twqRssA-FyqlToAb-17" target="bH-2twqRssA-FyqlToAb-31">
          <mxGeometry relative="1" as="geometry" />
        </mxCell>
        <mxCell id="bH-2twqRssA-FyqlToAb-34" style="edgeStyle=none;shape=connector;rounded=0;orthogonalLoop=1;jettySize=auto;html=1;strokeColor=default;align=center;verticalAlign=middle;fontFamily=Helvetica;fontSize=11;fontColor=default;labelBackgroundColor=default;endArrow=none;" edge="1" parent="1" source="bH-2twqRssA-FyqlToAb-17" target="bH-2twqRssA-FyqlToAb-11">
          <mxGeometry relative="1" as="geometry" />
        </mxCell>
        <mxCell id="bH-2twqRssA-FyqlToAb-17" value="Detail_evaluasi" style="whiteSpace=wrap;html=1;align=center;fontFamily=Helvetica;fontSize=11;labelBackgroundColor=default;fillColor=#f8cecc;strokeColor=#b85450;" vertex="1" parent="1">
          <mxGeometry x="170" y="780" width="100" height="40" as="geometry" />
        </mxCell>
        <mxCell id="bH-2twqRssA-FyqlToAb-18" value="id_detail_evaluasi" style="whiteSpace=wrap;html=1;align=center;fontFamily=Helvetica;fontSize=11;fontColor=default;labelBackgroundColor=default;shape=ellipse;perimeter=ellipsePerimeter;fontStyle=4;" vertex="1" parent="1">
          <mxGeometry x="320" y="780" width="100" height="40" as="geometry" />
        </mxCell>
        <mxCell id="bH-2twqRssA-FyqlToAb-25" style="shape=connector;rounded=0;orthogonalLoop=1;jettySize=auto;html=1;strokeColor=default;align=center;verticalAlign=middle;fontFamily=Helvetica;fontSize=11;fontColor=default;labelBackgroundColor=default;endArrow=none;exitX=0.5;exitY=0;exitDx=0;exitDy=0;" edge="1" parent="1" source="bH-2twqRssA-FyqlToAb-24" target="CuQVLchVUGJVtXKuXJMo-72">
          <mxGeometry relative="1" as="geometry" />
        </mxCell>
        <mxCell id="bH-2twqRssA-FyqlToAb-24" value="Komentar" style="ellipse;whiteSpace=wrap;html=1;align=center;fontFamily=Helvetica;fontSize=11;fontColor=default;labelBackgroundColor=default;" vertex="1" parent="1">
          <mxGeometry x="60" y="105" width="100" height="40" as="geometry" />
        </mxCell>
        <mxCell id="bH-2twqRssA-FyqlToAb-28" value="Komentar" style="ellipse;whiteSpace=wrap;html=1;align=center;fontFamily=Helvetica;fontSize=11;fontColor=default;labelBackgroundColor=default;" vertex="1" parent="1">
          <mxGeometry x="300" y="850" width="100" height="40" as="geometry" />
        </mxCell>
        <mxCell id="bH-2twqRssA-FyqlToAb-31" value="id_evaluasi" style="ellipse;whiteSpace=wrap;html=1;align=center;fontFamily=Helvetica;fontSize=11;fontColor=default;labelBackgroundColor=default;" vertex="1" parent="1">
          <mxGeometry x="170" y="870" width="100" height="40" as="geometry" />
        </mxCell>
      </root>
    </mxGraphModel>
  </diagram>
</mxfile>
